<?xml version="1.0" encoding="UTF-8" standalone="no"?><!DOCTYPE svg PUBLIC "-//W3C//DTD SVG 1.1//EN" "http://www.w3.org/Graphics/SVG/1.1/DTD/svg11.dtd"><svg width="100%" height="100%" viewBox="0 0 148 148" version="1.1" xmlns="http://www.w3.org/2000/svg" xmlns:xlink="http://www.w3.org/1999/xlink" xml:space="preserve" xmlns:serif="http://www.serif.com/" style="fill-rule:evenodd;clip-rule:evenodd;stroke-linejoin:round;stroke-miterlimit:2;"><g><path d="M147.077,36.766l0.007,73.538c0.002,20.293 -16.385,36.771 -36.571,36.772l-73.927,0.007c-20.186,0.002 -36.576,-16.472 -36.578,-36.766l-0.007,-73.538c-0.002,-20.293 16.385,-36.771 36.571,-36.772l73.927,-0.007c20.186,-0.002 36.576,16.472 36.578,36.766Z" style="fill:#f97316;"/><g id="ChatGPT-Image-Apr-29--2026--10_48_35-PM.png" serif:id="ChatGPT Image Apr 29, 2026, 10_48_35 PM.png"><path d="M6.879,67.468c0.228,-0.862 0.593,-2.639 1.834,-5.13c0.457,-0.918 20.657,-36.683 20.72,-36.791c4.345,-7.45 13.093,-12.08 21.62,-12.112c3.138,-0.012 29.589,-0.109 39.225,-0.033c3.635,0.029 19.459,-1.89 27.947,12.711c0.257,0.442 16.276,29.147 16.434,29.439c1.862,3.442 11.399,15.93 2.77,31.272c-1.491,2.651 -13.359,23.752 -18.549,33.184c-1.011,1.837 -7.382,13.416 -22.247,13.719c-0.202,0.004 -44.01,0.029 -44.917,0.022c-16.722,-0.135 -22.45,-12.403 -23.451,-14.123c-1.063,-1.827 -8.081,-13.887 -13.049,-22.976c-5.556,-10.165 -11.237,-16.526 -8.337,-29.182l0,0Z" style="fill:#121212;"/><path d="M69.664,33.914c2.166,-1.68 5.654,-4.328 6.147,-4.702c4.124,-3.13 8.648,-0.561 9.045,3.206c0.268,2.54 0.083,2.541 0.061,31.971c-0.028,37.082 0.108,37.127 -0.163,37.837c-0.313,0.818 -14.184,10.887 -14.34,10.785c-0.243,-0.159 -0.092,-28.39 -0.123,-38.975c-0.054,-18.323 0.146,-21.761 -0.211,-22.574c-1.447,-3.297 -5.056,0.256 -5.53,0.583c-9.324,6.441 -9.555,7.727 -9.843,6.74c-0.063,-0.214 0.034,-11.897 0.043,-12.932c0.007,-0.886 0.245,-0.791 1.719,-1.917c12.132,-9.267 12.157,-9.191 13.195,-10.022l-0,-0Z" style="fill:#f97316;"/><path d="M102.781,61.466c-0.662,-0.521 -0.646,-0.52 -1.286,-1.06c-0.311,-0.262 -3.015,-2.544 -0.902,-5.409c2.242,-3.04 5.331,0.307 7.127,1.736c0.724,0.576 0.709,0.568 1.428,1.143c11.977,9.588 13.992,10.373 14.545,13.775c0.984,6.048 -2.077,7.975 -3.877,9.412c-1.167,0.932 -13.433,10.73 -14.629,11.589c-2.244,1.611 -4.135,-0.036 -4.597,-1.333c-1.365,-3.83 2.364,-5.415 5.995,-8.428c10.638,-8.828 11.82,-8.728 10.996,-9.57c-0.005,-0.005 -13.995,-11.232 -14.802,-11.857l-0,0Z" style="fill:#fff;"/><path d="M37.715,57.536c0.949,-0.747 3.309,-2.65 3.596,-2.882c2.97,-2.395 4.723,0.754 4.843,1.047c1.452,3.562 -2.508,5.714 -3.507,6.551c-1.576,1.32 -1.559,1.319 -3.159,2.608c-10.011,8.069 -10.936,8.582 -10.665,9.071c0.206,0.373 5.981,4.853 6.509,5.262c0.775,0.601 6.965,5.404 9.631,7.612c2.126,1.761 1.352,4.315 0.975,4.939c-1.789,2.966 -4.512,0.882 -4.835,0.635c-7.716,-5.905 -7.571,-6.102 -15.258,-12.036c-5.597,-4.32 -2.597,-10.856 -1.113,-12.352c0.4,-0.403 12.891,-10.384 12.984,-10.457l0,-0Z" style="fill:#fff;"/></g></g></svg>